<svg xmlns="http://www.w3.org/2000/svg" viewBox="0 0 222.6 117.89"><defs><style>.cls-1{fill:#00dbe7;}.cls-2{fill:#97ecc5;}.cls-3{fill:none;stroke:#97ecc5;stroke-miterlimit:10;stroke-width:7px;}</style></defs><title>工作區域 7</title><g id="頁面切分而下"><path class="cls-1" d="M42.88,45.38V0H57.05q6.42,0,10.13,2.84a9.15,9.15,0,0,1,3.7,7.65,10.3,10.3,0,0,1-2.25,6.59,11.91,11.91,0,0,1-5.95,4v.12a11.8,11.8,0,0,1,7.46,3.49A10.43,10.43,0,0,1,73,32.17a12,12,0,0,1-4.23,9.56q-4.23,3.66-11.18,3.65Zm7-39.61V19H55a9.19,9.19,0,0,0,6.24-1.93,6.65,6.65,0,0,0,2.23-5.3q0-6-8.26-6Zm0,19.07V39.61h6.62a10.09,10.09,0,0,0,6.68-2,6.85,6.85,0,0,0,2.37-5.54q0-7.23-9.76-7.24Z"/><path class="cls-1" d="M106.3,45.38H81.55V0h7V39.35H106.3Z"/><path class="cls-2" d="M146.59,26.57q0,19.57-17.9,19.57-17.18,0-17.17-18.92V0h7V27Q118.55,40,129.21,40q10.35,0,10.34-12.48V0h7Z"/><path class="cls-1" d="M182.53,45.38H157.4V0h24.11V6H164.43V19.39h15.85v6H164.43v14h18.1Z"/><path class="cls-1" d="M0,108a18.85,18.85,0,0,0,12.27,4.24q9,0,9-6.18a5.48,5.48,0,0,0-1-3.22,9.1,9.1,0,0,0-2.68-2.5A74,74,0,0,0,11,96.87q-6.13-2.93-8.56-5.94A11,11,0,0,1,0,83.84a10.78,10.78,0,0,1,4.63-9.23q4.62-3.37,11.83-3.37c4.56,0,8,.55,10.32,1.67v7.21a17.92,17.92,0,0,0-10.46-2.91,11.61,11.61,0,0,0-6.48,1.62,5,5,0,0,0-2.46,4.42,5.41,5.41,0,0,0,1.8,4.19c1.2,1.09,3.74,2.56,7.61,4.39q6.77,3.17,9.34,6.35a11.26,11.26,0,0,1,2.58,7.31q0,6.15-4.45,9.4t-12.34,3.25a33.22,33.22,0,0,1-6.44-.7A16.72,16.72,0,0,1,0,115.56Z"/><path class="cls-1" d="M65.8,78h-13v39.34H45.7V78h-13V72H65.8Z"/><path class="cls-2" d="M107.11,98.57q0,19.58-17.9,19.57Q72,118.14,72,99.22V72h7V99Q79.07,112,89.74,112q10.33,0,10.34-12.48V72h7Z"/><path class="cls-1" d="M117.92,117.38V72h13.77q24,0,24,22.12,0,10.63-6.84,16.95t-17.53,6.31ZM125,78v33.31h6.18q8,0,12.61-4.5t4.59-12.58q0-8-4.37-12.09T131.31,78Z"/><path class="cls-1" d="M175.4,77.74h-4.22v33.9h4.22v5.74H160v-5.74h4.19V77.74H160V72H175.4Z"/><path class="cls-1" d="M179.65,95.26q0-10.76,6-17.39t16.24-6.63q9.59,0,15.38,6.44t5.81,16.53q0,10.7-5.92,17.31t-16,6.62q-9.6,0-15.57-6.38T179.65,95.26Zm7.38-.5q0,7.5,3.84,12.35A12.51,12.51,0,0,0,201.24,112q6.85,0,10.66-4.61t3.81-12.47q0-8-3.67-12.71t-10.48-4.69A12.92,12.92,0,0,0,191,82.34Q187,87.2,187,94.76Z"/><path class="cls-3" d="M128.82,45.38s.29,14.13-15.24,14.13H98.06s-8.91,1.72-8.91,14.37v42"/></g></svg>