<svg id="圖層_1" data-name="圖層 1" xmlns="http://www.w3.org/2000/svg" viewBox="0 0 400 250"><defs><style>.cls-1{fill:#00dbe7;}.cls-2,.cls-4{fill:none;stroke:#00649f;stroke-miterlimit:10;}.cls-2{stroke-width:2px;}.cls-3{fill:#00649f;}.cls-5{fill:#97ecc5;}</style></defs><title>cat_righttop</title><polygon class="cls-1" points="400 250 315.23 133.31 194.17 23.53 207.69 99.62 120.58 153.19 72.52 102.63 71.63 104.44 0 250 400 250"/><path class="cls-2" d="M194.41,23.53l75.64,74.76s-51.91-.7-52.06-1.22S194.41,23.53,194.41,23.53Z"/><path class="cls-2" d="M79.27,180.73S51.73,172,52,171.21s19.89-66.77,19.89-66.77Z"/><polygon class="cls-3" points="259.76 130.19 248.85 141.25 232.48 144.96 246.43 130.19 259.76 130.19"/><polygon class="cls-3" points="167.26 172.84 158.41 180.72 141.64 179.58 159.94 172.84 167.26 172.84"/><polygon class="cls-3" points="227.95 162.68 227.07 170.94 218.56 166.81 223.94 165.93 227.95 162.68"/><line class="cls-4" x1="227.96" y1="177.45" x2="225.71" y2="208.78"/><path class="cls-4" d="M236.25,222.46c-1.17-.16-10.54-4.84-10.54-4.84l-10.82,5.51"/><polygon class="cls-5" points="246.43 130.19 250.75 130.19 253.89 136.14 248.85 141.25 243.91 142.37 239.45 137.57 246.43 130.19"/><path class="cls-5" d="M160.52,172.84l1.92,4.3-4,3.59-6.31-.44s-1.95-3.85-1.92-3.86l9.76-3.59Z"/></svg>