<svg id="圖層_1" data-name="圖層 1" xmlns="http://www.w3.org/2000/svg" viewBox="0 0 445.03 263.76"><defs><style>.cls-1{fill:#00649f;}.cls-2{fill:#97ecc5;}.cls-3,.cls-5,.cls-7{fill:none;}.cls-3,.cls-6{stroke:#97ecc5;}.cls-3,.cls-5,.cls-6,.cls-7{stroke-miterlimit:10;}.cls-4{fill:#00dbe7;}.cls-5,.cls-7{stroke:#00649f;}.cls-6{fill:#01aac1;stroke-width:2px;}.cls-7{stroke-width:4px;}</style></defs><title>cat_three_cats</title><polygon class="cls-1" points="167.08 0 124.28 175.84 105 263.76 303.96 263.76 300.6 131.88 278.6 3.73 270.49 31.29 174.29 33.53 167.08 0"/><polygon class="cls-2" points="172.3 73.02 191.67 75.5 204.48 71.03 172.3 73.02"/><polygon class="cls-2" points="233.4 71.03 253.27 75.5 270.16 71.03 233.4 71.03"/><polygon class="cls-1" points="184.37 72.27 184.82 74.62 191.67 75.5 196.3 73.89 195.71 71.57 184.37 72.27"/><polygon class="cls-1" points="246.06 71.03 246.64 74.01 253.61 75.5 258.23 74.42 258.23 71.03 246.06 71.03"/><polygon class="cls-2" points="218.99 87.17 215 83.45 218.99 83.45 222.53 83.45 218.99 87.17"/><polyline class="cls-3" points="227.03 108.35 218.14 104.38 210.51 111.76"/><line class="cls-3" x1="218.77" y1="88.29" x2="218.77" y2="100.77"/><polygon class="cls-4" points="308.15 0 265.35 175.84 246.06 263.76 445.03 263.76 441.67 131.88 419.67 3.73 411.56 31.29 315.36 33.53 308.15 0"/><polygon class="cls-2" points="313.37 73.02 332.74 75.5 345.55 71.03 313.37 73.02"/><polygon class="cls-2" points="374.47 71.03 394.33 75.5 411.22 71.03 374.47 71.03"/><polygon class="cls-1" points="325.44 72.27 325.89 74.62 332.74 75.5 337.37 73.89 336.77 71.57 325.44 72.27"/><polygon class="cls-1" points="387.13 71.03 387.71 74.01 394.68 75.5 399.3 74.42 399.3 71.03 387.13 71.03"/><polygon class="cls-1" points="360.06 87.17 356.07 83.45 360.06 83.45 363.6 83.45 360.06 87.17"/><polyline class="cls-5" points="368.09 108.35 359.21 104.38 351.57 111.76"/><line class="cls-5" x1="359.83" y1="88.29" x2="359.83" y2="100.77"/><polygon class="cls-6" points="54.37 32.78 16.89 186.77 0 263.76 174.24 263.76 171.29 148.27 152.03 36.05 144.92 60.19 60.68 62.15 54.37 32.78"/><polygon class="cls-2" points="58.94 94.99 75.9 97.16 87.12 93.25 58.94 94.99"/><polygon class="cls-2" points="112.44 93.25 129.84 97.16 144.63 93.25 112.44 93.25"/><polygon class="cls-1" points="69.51 94.33 69.9 96.39 75.9 97.16 79.95 95.75 79.44 93.72 69.51 94.33"/><polygon class="cls-1" points="123.53 93.25 124.04 95.86 130.14 97.16 134.19 96.21 134.19 93.25 123.53 93.25"/><polygon class="cls-2" points="99.83 107.38 96.33 104.12 99.83 104.12 102.93 104.12 99.83 107.38"/><polyline class="cls-3" points="106.86 125.92 99.08 122.45 92.4 128.91"/><line class="cls-3" x1="99.63" y1="108.36" x2="99.63" y2="119.29"/><polyline class="cls-7" points="343.06 30.02 336.86 42.1 345.55 44.27 343.31 57.75"/><polyline class="cls-7" points="357.93 27.05 351.72 39.07 360.41 41.23 358.18 54.64"/><polyline class="cls-7" points="376.33 29.14 370.12 41.61 378.81 43.84 376.58 57.75"/><polygon class="cls-2" points="83.76 60.95 88.58 65.33 95.18 63.14 106.71 69.16 124.03 65.06 138.56 71.57 144.47 60.68 83.76 60.95"/></svg>