<svg id="圖層_1" data-name="圖層 1" xmlns="http://www.w3.org/2000/svg" viewBox="0 0 200.79 263.76"><defs><style>.cls-1{fill:#00649f;}.cls-2{fill:#97ecc5;}.cls-3{fill:none;stroke:#97ecc5;stroke-miterlimit:10;}</style></defs><title>cat_blue_cat</title><polygon class="cls-1" points="63.66 0 20.86 175.84 1.57 263.76 200.54 263.76 197.18 131.88 175.18 3.73 167.06 31.29 70.86 33.53 63.66 0"/><polygon class="cls-2" points="68.88 73.02 88.25 75.5 101.06 71.03 68.88 73.02"/><polygon class="cls-2" points="129.97 71.03 149.84 75.5 166.73 71.03 129.97 71.03"/><polygon class="cls-1" points="80.94 72.27 81.4 74.62 88.25 75.5 92.88 73.89 92.28 71.57 80.94 72.27"/><polygon class="cls-1" points="142.64 71.03 143.22 74.01 150.19 75.5 154.81 74.42 154.81 71.03 142.64 71.03"/><polygon class="cls-2" points="115.57 87.17 111.57 83.45 115.57 83.45 119.11 83.45 115.57 87.17"/><polyline class="cls-3" points="123.6 108.35 114.72 104.38 107.08 111.76"/><line class="cls-3" x1="115.34" y1="88.29" x2="115.34" y2="100.77"/></svg>