<svg id="圖層_1" data-name="圖層 1" xmlns="http://www.w3.org/2000/svg" viewBox="0 0 400 250"><defs><style>.cls-1{fill:#00dbe7;}.cls-2,.cls-4{fill:none;stroke:#00649f;stroke-miterlimit:10;}.cls-2{stroke-width:2px;}.cls-3{fill:#00649f;}.cls-5{fill:#97ecc5;}</style></defs><title>cat_right</title><polygon class="cls-1" points="400 250 288.33 32.52 281 105.59 120.58 107.19 85.33 36.52 0 250 400 250"/><path class="cls-2" d="M289.34,36.55,320,105.67s-32.25-.68-32.35-1.19S289.34,36.55,289.34,36.55Z"/><path class="cls-2" d="M102,109.81s-41.92.43-41.67-.29,26.2-73,26.2-73Z"/><polygon class="cls-3" points="284.8 146.26 269.86 150.54 253.78 145.72 273.19 139.71 284.8 146.26"/><polygon class="cls-3" points="192.89 146.71 182.55 152.49 166.42 147.74 185.74 145.12 192.89 146.71"/><polygon class="cls-3" points="242.3 156.29 238.03 163.41 232.04 156.09 237.29 157.56 242.3 156.29"/><line class="cls-4" x1="238.66" y1="166.04" x2="239.2" y2="197.44"/><path class="cls-4" d="M251,210.47c-1.16-.21-10.36-5.22-10.36-5.22l-11,5.11"/><polygon class="cls-5" points="273.19 139.71 276.95 141.83 276.76 148.56 269.86 150.54 265.01 149.09 263.49 142.72 273.19 139.71"/><path class="cls-5" d="M186.31,145.25l.94,4.61-4.7,2.63-6.07-1.79s-1.07-4.18-1-4.18l10.3-1.4Z"/></svg>