<svg id="圖層_1" data-name="圖層 1" xmlns="http://www.w3.org/2000/svg" viewBox="0 0 400 250"><defs><style>.cls-1{fill:#00dbe7;}.cls-2,.cls-4{fill:none;stroke:#00649f;stroke-miterlimit:10;}.cls-2{stroke-width:2px;}.cls-3{fill:#00649f;}.cls-5{fill:#97ecc5;}</style></defs><title>cat_top</title><polygon class="cls-1" points="0 250.81 100.02 75.25 128.77 126.5 257.27 124.67 287.02 86.07 400 250.81 0 250.81"/><path class="cls-2" d="M100.15,76,72.53,143.18s40-19.34,40.16-19.86S100.15,76,100.15,76Z"/><path class="cls-2" d="M265.41,131.54s39.94,2.22,39.68,1.68-19.79-47.3-19.79-47.3Z"/><polygon class="cls-3" points="144.28 144.94 158.85 150.33 175.25 146.74 156.35 139.28 144.28 144.94"/><polygon class="cls-3" points="210.38 143.88 223.33 149.39 243.19 142.63 221.56 139.1 210.38 143.88"/><polygon class="cls-3" points="187.82 153.39 191.84 160.66 198.08 153.55 192.78 154.83 187.82 153.39"/><line class="cls-4" x1="193.03" y1="162.34" x2="193.19" y2="177.03"/><path class="cls-4" d="M182.27,187c1.17-.28,10.54-8.26,10.54-8.26l10.82,9.4"/><polygon class="cls-5" points="156.35 139.28 152.44 141.12 153.6 148.35 158.85 150.33 162.54 149.5 165.8 143.01 156.35 139.28"/><polygon class="cls-5" points="221.05 148.42 223.33 149.39 228.36 147.69 231.81 140.78 221.56 139.1 220.48 139.57 221.05 148.42"/></svg>