<svg id="圖層_1" data-name="圖層 1" xmlns="http://www.w3.org/2000/svg" viewBox="0 0 400 250"><defs><style>.cls-1{fill:#00dbe7;}.cls-2,.cls-4{fill:none;stroke:#00649f;stroke-miterlimit:10;}.cls-2{stroke-width:2px;}.cls-3{fill:#00649f;}.cls-5{fill:#97ecc5;}</style></defs><title>cat_lefttop</title><polygon class="cls-1" points="0 250 84.77 133.31 205.83 23.53 192.31 99.62 279.42 153.19 327.48 102.63 328.37 104.44 400 250 0 250"/><path class="cls-2" d="M205.59,23.53,130,98.29s51.91-.7,52.06-1.22S205.59,23.53,205.59,23.53Z"/><path class="cls-2" d="M320.73,180.73S348.27,172,348,171.21s-19.89-66.77-19.89-66.77Z"/><polygon class="cls-3" points="140.24 130.19 151.15 141.25 167.52 144.96 153.57 130.19 140.24 130.19"/><polygon class="cls-3" points="232.74 172.84 241.59 180.72 258.36 179.58 240.06 172.84 232.74 172.84"/><polygon class="cls-3" points="172.05 162.68 172.93 170.94 181.44 166.81 176.06 165.93 172.05 162.68"/><line class="cls-4" x1="172.04" y1="177.45" x2="174.29" y2="208.78"/><path class="cls-4" d="M163.75,222.46c1.17-.16,10.54-4.84,10.54-4.84l10.82,5.51"/><polygon class="cls-5" points="153.57 130.19 149.25 130.19 146.11 136.14 151.15 141.25 156.09 142.37 160.55 137.57 153.57 130.19"/><path class="cls-5" d="M239.48,172.84l-1.92,4.3,4,3.59,6.31-.44s1.95-3.85,1.92-3.86l-9.76-3.59Z"/></svg>