<svg id="圖層_1" data-name="圖層 1" xmlns="http://www.w3.org/2000/svg" viewBox="0 0 178.09 263.76"><defs><style>.cls-1{fill:#01aac1;stroke-width:2px;}.cls-1,.cls-4{stroke:#97ecc5;stroke-miterlimit:10;}.cls-2{fill:#97ecc5;}.cls-3{fill:#00649f;}.cls-4{fill:none;}</style></defs><title>cat_cerulean_cat</title><polygon class="cls-1" points="56.43 32.78 18.95 186.77 2.06 263.76 176.3 263.76 173.36 148.27 154.09 36.05 146.99 60.19 62.74 62.15 56.43 32.78"/><polygon class="cls-2" points="61 94.99 77.97 97.16 89.18 93.25 61 94.99"/><polygon class="cls-2" points="114.5 93.25 131.9 97.16 146.69 93.25 114.5 93.25"/><polygon class="cls-3" points="71.57 94.33 71.97 96.39 77.97 97.16 82.02 95.75 81.5 93.72 71.57 94.33"/><polygon class="cls-3" points="125.6 93.25 126.1 95.86 132.2 97.16 136.25 96.21 136.25 93.25 125.6 93.25"/><polygon class="cls-2" points="101.89 107.38 98.39 104.12 101.89 104.12 104.99 104.12 101.89 107.38"/><polyline class="cls-4" points="108.92 125.92 101.14 122.45 94.46 128.91"/><line class="cls-4" x1="101.69" y1="108.36" x2="101.69" y2="119.29"/><polygon class="cls-2" points="85.83 60.95 90.64 65.33 97.24 63.14 108.77 69.16 126.09 65.06 140.62 71.57 146.54 60.68 85.83 60.95"/></svg>