<svg id="圖層_1" data-name="圖層 1" xmlns="http://www.w3.org/2000/svg" viewBox="0 0 400 250"><defs><style>.cls-1{fill:#00dbe7;}.cls-2,.cls-4{fill:none;stroke:#00649f;stroke-miterlimit:10;}.cls-2{stroke-width:2px;}.cls-3{fill:#00649f;}.cls-5{fill:#97ecc5;}</style></defs><title>cat_left</title><polygon class="cls-1" points="0 250 111.67 32.52 119 105.59 279.42 107.19 314.67 36.52 400 250 0 250"/><path class="cls-2" d="M110.66,36.55,80,105.67s32.25-.68,32.35-1.19S110.66,36.55,110.66,36.55Z"/><path class="cls-2" d="M298,109.81s41.92.43,41.67-.29-26.2-73-26.2-73Z"/><polygon class="cls-3" points="115.2 146.26 130.14 150.54 146.22 145.72 126.81 139.71 115.2 146.26"/><polygon class="cls-3" points="207.11 146.71 217.45 152.49 233.58 147.74 214.26 145.12 207.11 146.71"/><polygon class="cls-3" points="157.7 156.29 161.97 163.41 167.96 156.09 162.71 157.56 157.7 156.29"/><line class="cls-4" x1="161.34" y1="166.04" x2="160.8" y2="197.44"/><path class="cls-4" d="M149,210.47c1.16-.21,10.36-5.22,10.36-5.22l11,5.11"/><polygon class="cls-5" points="126.81 139.71 123.05 141.83 123.24 148.56 130.14 150.54 134.99 149.09 136.51 142.72 126.81 139.71"/><path class="cls-5" d="M213.69,145.25l-.94,4.61,4.7,2.63,6.07-1.79s1.07-4.18,1-4.18l-10.3-1.4Z"/></svg>