<svg id="圖層_1" data-name="圖層 1" xmlns="http://www.w3.org/2000/svg" viewBox="0 0 200.12 263.76"><defs><style>.cls-1{fill:#00dbe7;}.cls-2{fill:#97ecc5;}.cls-3{fill:#00649f;}.cls-4,.cls-5{fill:none;stroke:#00649f;stroke-miterlimit:10;}.cls-5{stroke-width:4px;}</style></defs><title>cat_deep_blue_cat</title><polygon class="cls-1" points="63.17 0 20.37 175.84 1.08 263.76 200.05 263.76 196.69 131.88 174.69 3.73 166.58 31.29 70.38 33.53 63.17 0"/><polygon class="cls-2" points="68.39 73.02 87.76 75.5 100.57 71.03 68.39 73.02"/><polygon class="cls-2" points="129.49 71.03 149.35 75.5 166.24 71.03 129.49 71.03"/><polygon class="cls-3" points="80.46 72.27 80.91 74.62 87.76 75.5 92.39 73.89 91.79 71.57 80.46 72.27"/><polygon class="cls-3" points="142.15 71.03 142.73 74.01 149.7 75.5 154.32 74.42 154.32 71.03 142.15 71.03"/><polygon class="cls-3" points="115.08 87.17 111.08 83.45 115.08 83.45 118.62 83.45 115.08 87.17"/><polyline class="cls-4" points="123.11 108.35 114.23 104.38 106.59 111.76"/><line class="cls-4" x1="114.85" y1="88.29" x2="114.85" y2="100.77"/><polyline class="cls-5" points="98.08 30.02 91.87 42.1 100.57 44.27 98.33 57.75"/><polyline class="cls-5" points="112.95 27.05 106.74 39.07 115.43 41.23 113.2 54.64"/><polyline class="cls-5" points="131.35 29.14 125.14 41.61 133.83 43.84 131.6 57.75"/></svg>