<svg id="圖層_1" data-name="圖層 1" xmlns="http://www.w3.org/2000/svg" viewBox="0 0 250 250"><defs><style>.cls-1,.cls-4,.cls-5{fill:none;}.cls-2{fill:#97ecc5;}.cls-2,.cls-3,.cls-4,.cls-5{stroke:#000;stroke-miterlimit:10;stroke-width:2px;}.cls-3{fill:#fff;}.cls-5{stroke-dasharray:2.01 2.01;}</style></defs><title>service_icon2</title><g id="Service"><rect class="cls-1" width="250" height="250"/><g id="MotionGraphic"><rect class="cls-2" x="139.83" y="98.68" width="89.67" height="10.48"/><rect class="cls-2" x="139.83" y="116.02" width="89.67" height="10.48"/><rect class="cls-2" x="139.83" y="132.45" width="89.67" height="10.48"/><rect class="cls-2" x="139.83" y="150.45" width="89.67" height="70.96"/><path class="cls-2" d="M130.77,125.88l34,78.45a85.54,85.54,0,0,1-67.49.19c-43.14-18.4-63.5-69-45.11-112.17s69-63.5,112.17-45.11l0,0Z"/><path class="cls-3" d="M109,116.64l62,58.84a85.52,85.52,0,0,1-62,26.64c-46.9,0-85.49-38.59-85.49-85.48S62.09,31.15,109,31.15H109Z"/><circle class="cls-2" cx="204.17" cy="60.15" r="11"/><path class="cls-4" d="M109,35.09s.31-.16.9-.43"/><path class="cls-5" d="M111.74,33.81c13.27-6,71.52-29.34,91.6,13.5"/><path class="cls-4" d="M203.77,48.23c.13.3.26.61.4.92"/></g></g></svg>