<svg id="圖層_1" data-name="圖層 1" xmlns="http://www.w3.org/2000/svg" viewBox="0 0 250 250"><defs><style>.cls-1,.cls-4,.cls-5,.cls-6{fill:none;}.cls-2{fill:#fff;}.cls-2,.cls-3,.cls-4,.cls-5,.cls-6{stroke:#000;stroke-miterlimit:10;stroke-width:2px;}.cls-3{fill:#97ecc5;}.cls-5{stroke-dasharray:2 2;}.cls-6{stroke-dasharray:2.04 2.04;}</style></defs><title>service_icon3</title><g id="Service"><rect class="cls-1" width="250" height="250"/><g id="Web_Design_Develop" data-name="Web Design/Develop"><rect class="cls-2" x="31.28" y="61.72" width="173.33" height="151"/><rect class="cls-3" x="31.28" y="61.72" width="173.33" height="18"/><rect class="cls-2" x="22.62" y="111.72" width="51.33" height="116.67"/><rect class="cls-3" x="88.26" y="111.72" width="71.67" height="11.67"/><rect class="cls-3" x="88.26" y="130.72" width="88.33" height="70.33"/><line class="cls-4" x1="88.26" y1="187.05" x2="176.59" y2="187.05"/><circle class="cls-3" cx="158.33" cy="187.05" r="6.8"/><rect class="cls-3" x="176.53" y="25.51" width="53.5" height="96.5" transform="translate(8.57 -20.32) rotate(5.85)"/><rect class="cls-2" x="180.28" y="32.01" width="46" height="83.5" transform="translate(8.57 -20.32) rotate(5.85)"/><rect class="cls-3" x="22.62" y="111.72" width="51.33" height="58.33"/><path class="cls-2" d="M49,144.51c8.95,0,13.41,8.07,13.47,8.17a17.76,17.76,0,1,0-26.93,0C35.63,152.59,40.09,144.51,49,144.51Z"/><path class="cls-3" d="M62.5,152.68c-.06-.1-4.52-8.17-13.47-8.17s-13.4,8.08-13.46,8.17a17.72,17.72,0,0,0,26.93,0Z"/><circle class="cls-3" cx="49.03" cy="135.13" r="5.75"/><line class="cls-4" x1="43.28" y1="111.72" x2="43.28" y2="110.72"/><path class="cls-5" d="M43.28,108.71V24.88s.5-3.25,2.75-3.25H81.78s2.25-.25,2.5,1.25,10,31.75,10,31.75,0,1.75,1.5,1.75H136"/><path class="cls-4" d="M137,56.38h1v-1"/><path class="cls-6" d="M138,53.34v-20s.25-2.75,2.75-2.75H157s1.35-.25,1.3,2,0,9,0,9,0,1.75,1.6,1.75l17.58-.13"/><path class="cls-4" d="M178.52,43.24h1"/></g></g></svg>