<svg id="圖層_1" data-name="圖層 1" xmlns="http://www.w3.org/2000/svg" viewBox="0 0 250 250"><defs><style>.cls-1,.cls-4,.cls-5,.cls-6,.cls-7{fill:none;}.cls-2{fill:#fff;}.cls-2,.cls-3,.cls-4,.cls-5,.cls-6,.cls-7{stroke:#000;stroke-miterlimit:10;stroke-width:2px;}.cls-3{fill:#97ecc5;}.cls-5{stroke-dasharray:2.06 2.06;}.cls-6{stroke-dasharray:2.03 2.03;}.cls-7{stroke-dasharray:1.83 1.83;}</style></defs><title>service_icon1</title><g id="Service"><rect class="cls-1" width="250" height="250"/><g id="CI_VI_Design" data-name="CI/VI Design"><rect class="cls-2" x="101.56" y="38.78" width="132.77" height="114.67"/><rect class="cls-2" x="111.4" y="47.04" width="113.08" height="98.15"/><polygon class="cls-3" points="204.03 56.11 197.36 77.64 213.03 62.31 204.03 56.11"/><rect class="cls-3" x="28.15" y="44.28" width="53.13" height="103.67" transform="translate(26.66 -10.86) rotate(14.96)"/><polyline class="cls-4" points="42.43 39.18 45.27 45.81 66.63 51.51 86.5 56.82 93.75 52.89"/><line class="cls-4" x1="41.34" y1="146.19" x2="66.63" y2="51.51"/><circle class="cls-3" cx="168.68" cy="152.4" r="25.31"/><rect class="cls-2" x="64" y="120.21" width="103.95" height="76.5"/><rect class="cls-2" x="70.62" y="127.08" width="23.13" height="23.13"/><rect class="cls-2" x="101.56" y="127.08" width="61.44" height="9.13"/><rect class="cls-2" x="101.56" y="142.06" width="61.44" height="35.65"/><rect class="cls-2" x="101.56" y="183.21" width="61.44" height="9"/><polygon class="cls-3" points="83.13 126.44 72.63 155.72 97.32 134.88 83.13 126.44"/><polygon class="cls-3" points="54.04 84.79 42.05 103.87 61.14 93.1 54.04 84.79"/><line class="cls-4" x1="213.03" y1="153.45" x2="213.03" y2="154.45"/><line class="cls-5" x1="213.03" y1="156.51" x2="213.03" y2="213.18"/><polyline class="cls-4" points="213.03 214.21 213.03 215.21 212.03 215.21"/><line class="cls-6" x1="210" y1="215.21" x2="105.51" y2="215.21"/><polyline class="cls-4" points="104.5 215.21 103.5 215.21 103.5 214.21"/><line class="cls-7" x1="103.5" y1="212.38" x2="103.5" y2="198.63"/><line class="cls-4" x1="103.5" y1="197.71" x2="103.5" y2="196.71"/></g></g></svg>